<svg xmlns="http://www.w3.org/2000/svg" xmlns:xlink="http://www.w3.org/1999/xlink" contentStyleType="text/css" data-diagram-type="CLASS" height="800px" preserveAspectRatio="none" style="width:520px;height:800px;background:#FFFFFF;" version="1.1" viewBox="0 0 520 800" width="520px" zoomAndPan="magnify"><defs/><g><!--class v--><g class="entity" data-entity="v" data-source-line="12" data-uid="ent0002" id="entity_v"><rect fill="#F1F1F1" height="162.4075" rx="2.5" ry="2.5" style="stroke:#800080;stroke-width:0.5;" width="180.6714" x="154.85" y="7"/><ellipse cx="218.1858" cy="23" fill="#ADD1B2" rx="11" ry="11" style="stroke:#181818;stroke-width:1;"/><path d="M221.1546,29.5 L213.8421,29.5 L213.8421,16.8281 L221.1546,16.8281 L221.1546,18.7031 L215.8889,18.7031 L215.8889,21.9688 L220.8421,21.9688 L220.8421,23.8281 L215.8889,23.8281 L215.8889,27.625 L221.1546,27.625 L221.1546,29.5 Z " fill="#000000"/><text fill="#000000" font-family="sans-serif" font-size="14" lengthAdjust="spacing" textLength="45.4998" x="238.6858" y="28.432">vehicle</text><line style="stroke:#800080;stroke-width:0.5;" x1="155.85" x2="334.5214" y1="39" y2="39"/><ellipse cx="165.85" cy="54.034" fill="#000000" rx="3" ry="3" style="stroke:#000000;stroke-width:1;"/><text fill="#000000" font-family="sans-serif" font-size="14" font-weight="bold" lengthAdjust="spacing" textLength="154.6714" x="174.85" y="57.9659">String : vehicleID &#171;PK&#187;</text><line style="stroke:#800080;stroke-width:1;" x1="155.85" x2="334.5214" y1="66.0679" y2="66.0679"/><ellipse cx="165.85" cy="81.1019" fill="#000000" rx="3" ry="3" style="stroke:#000000;stroke-width:1;"/><text fill="#000000" font-family="sans-serif" font-size="14" lengthAdjust="spacing" textLength="114.3795" x="174.85" y="85.0339">String : nickname</text><text fill="#000000" font-family="sans-serif" font-size="14" lengthAdjust="spacing" textLength="86.7437" x="174.85" y="104.1018">String : make</text><text fill="#000000" font-family="sans-serif" font-size="14" lengthAdjust="spacing" textLength="92.1057" x="174.85" y="123.1697">String : model</text><text fill="#000000" font-family="sans-serif" font-size="14" lengthAdjust="spacing" textLength="100.6176" x="174.85" y="142.2376">Int : modelYear</text><text fill="#000000" font-family="sans-serif" font-size="14" lengthAdjust="spacing" textLength="83.4537" x="174.85" y="161.3055">String : plate</text></g><!--class va--><g class="entity" data-entity="va" data-source-line="22" data-uid="ent0003" id="entity_va"><rect fill="#F1F1F1" height="105.2038" rx="2.5" ry="2.5" style="stroke:#800080;stroke-width:0.5;" width="212.3638" x="7" y="357.35"/><ellipse cx="45.7458" cy="373.35" fill="#ADD1B2" rx="11" ry="11" style="stroke:#181818;stroke-width:1;"/><path d="M48.7145,379.85 L41.402,379.85 L41.402,367.1781 L48.7145,367.1781 L48.7145,369.0531 L43.4489,369.0531 L43.4489,372.3188 L48.402,372.3188 L48.402,374.1781 L43.4489,374.1781 L43.4489,377.975 L48.7145,377.975 L48.7145,379.85 Z " fill="#000000"/><text fill="#000000" font-family="sans-serif" font-size="14" lengthAdjust="spacing" textLength="127.5955" x="65.0226" y="378.782">vehicle_attachment</text><line style="stroke:#800080;stroke-width:0.5;" x1="8" x2="218.3638" y1="389.35" y2="389.35"/><ellipse cx="18" cy="404.384" fill="#000000" rx="3" ry="3" style="stroke:#000000;stroke-width:1;"/><text fill="#000000" font-family="sans-serif" font-size="14" font-weight="bold" lengthAdjust="spacing" textLength="186.3638" x="27" y="408.3159">String : attachmentID &#171;PK&#187;</text><line style="stroke:#800080;stroke-width:1;" x1="8" x2="218.3638" y1="416.4179" y2="416.4179"/><ellipse cx="18" cy="431.4519" fill="#000000" rx="3" ry="3" style="stroke:#000000;stroke-width:1;"/><text fill="#000000" font-family="sans-serif" font-size="14" lengthAdjust="spacing" textLength="74.1157" x="27" y="435.3839">String : URI</text><ellipse cx="18" cy="450.5198" fill="#000000" rx="3" ry="3" style="stroke:#000000;stroke-width:1;"/><text fill="#000000" font-family="sans-serif" font-size="14" font-weight="bold" lengthAdjust="spacing" textLength="137.6265" x="27" y="454.4518">String : vehicle &#171;FK&#187;</text></g><!--class m--><g class="entity" data-entity="m" data-source-line="29" data-uid="ent0004" id="entity_m"><rect fill="#F1F1F1" height="361.0867" rx="2.5" ry="2.5" style="stroke:#800080;stroke-width:0.5;" width="245.4491" x="254.46" y="229.4"/><ellipse cx="346.6497" cy="245.4" fill="#ADD1B2" rx="11" ry="11" style="stroke:#181818;stroke-width:1;"/><path d="M349.6184,251.9 L342.3059,251.9 L342.3059,239.2281 L349.6184,239.2281 L349.6184,241.1031 L344.3528,241.1031 L344.3528,244.3688 L349.3059,244.3688 L349.3059,246.2281 L344.3528,246.2281 L344.3528,250.025 L349.6184,250.025 L349.6184,251.9 Z " fill="#000000"/><text fill="#000000" font-family="sans-serif" font-size="14" lengthAdjust="spacing" textLength="52.5698" x="367.1497" y="250.832">mileage</text><line style="stroke:#800080;stroke-width:0.5;" x1="255.46" x2="498.9091" y1="261.4" y2="261.4"/><ellipse cx="265.46" cy="276.434" fill="#000000" rx="3" ry="3" style="stroke:#000000;stroke-width:1;"/><text fill="#000000" font-family="sans-serif" font-size="14" font-weight="bold" lengthAdjust="spacing" textLength="161.7414" x="274.46" y="280.3659">String : mileageID &#171;PK&#187;</text><line style="stroke:#800080;stroke-width:1;" x1="255.46" x2="498.9091" y1="288.4679" y2="288.4679"/><ellipse cx="265.46" cy="303.5019" fill="#000000" rx="3" ry="3" style="stroke:#000000;stroke-width:1;"/><text fill="#000000" font-family="sans-serif" font-size="14" lengthAdjust="spacing" textLength="121.3936" x="274.46" y="307.4339">String : timestamp</text><text fill="#000000" font-family="sans-serif" font-size="14" lengthAdjust="spacing" textLength="108.8356" x="274.46" y="326.5018">Double : latitude</text><text fill="#000000" font-family="sans-serif" font-size="14" lengthAdjust="spacing" textLength="121.6595" x="274.46" y="345.5697">Double : longitude</text><text fill="#000000" font-family="sans-serif" font-size="14" lengthAdjust="spacing" textLength="133.0275" x="274.46" y="364.6376">Boolean : isAccurate</text><text fill="#000000" font-family="sans-serif" font-size="14" lengthAdjust="spacing" textLength="219.4491" x="274.46" y="383.7055">Double : locationDeviationMeters</text><ellipse cx="265.46" cy="398.8415" fill="#000000" rx="3" ry="3" style="stroke:#000000;stroke-width:1;"/><text fill="#000000" font-family="sans-serif" font-size="14" lengthAdjust="spacing" textLength="158.2834" x="274.46" y="402.7734">Double : odometerMiles</text><ellipse cx="265.46" cy="417.9094" fill="#000000" rx="3" ry="3" style="stroke:#000000;stroke-width:1;"/><text fill="#000000" font-family="sans-serif" font-size="14" lengthAdjust="spacing" textLength="156.4214" x="274.46" y="421.8414">Double : volumeGallons</text><ellipse cx="265.46" cy="436.9773" fill="#000000" rx="3" ry="3" style="stroke:#000000;stroke-width:1;"/><text fill="#000000" font-family="sans-serif" font-size="14" lengthAdjust="spacing" textLength="130.3115" x="274.46" y="440.9093">Boolean : isFullTank</text><ellipse cx="265.46" cy="456.0452" fill="#000000" rx="3" ry="3" style="stroke:#000000;stroke-width:1;"/><text fill="#000000" font-family="sans-serif" font-size="14" lengthAdjust="spacing" textLength="105.6156" x="274.46" y="459.9772">Enum : fuelType</text><ellipse cx="265.46" cy="475.1131" fill="#000000" rx="3" ry="3" style="stroke:#000000;stroke-width:1;"/><text fill="#000000" font-family="sans-serif" font-size="14" lengthAdjust="spacing" textLength="125.3415" x="274.46" y="479.0451">Boolean : isTopTier</text><ellipse cx="265.46" cy="494.181" fill="#000000" rx="3" ry="3" style="stroke:#000000;stroke-width:1;"/><text fill="#000000" font-family="sans-serif" font-size="14" lengthAdjust="spacing" textLength="134.7915" x="274.46" y="498.113">Double : totalDollars</text><text fill="#000000" font-family="sans-serif" font-size="14" lengthAdjust="spacing" textLength="97.0616" x="274.46" y="517.1809">String : journal</text><ellipse cx="265.46" cy="532.3169" fill="#000000" rx="3" ry="3" style="stroke:#000000;stroke-width:1;"/><text fill="#000000" font-family="sans-serif" font-size="14" lengthAdjust="spacing" textLength="135.0155" x="274.46" y="536.2489">Boolean : isExported</text><ellipse cx="265.46" cy="551.3848" fill="#000000" rx="3" ry="3" style="stroke:#000000;stroke-width:1;"/><text fill="#000000" font-family="sans-serif" font-size="14" font-weight="bold" lengthAdjust="spacing" textLength="137.6265" x="274.46" y="555.3168">String : vehicle &#171;FK&#187;</text><line style="stroke:#800080;stroke-width:1;stroke-dasharray:1,2;" x1="255.46" x2="498.9091" y1="563.4188" y2="563.4188"/><text fill="#000000" font-family="sans-serif" font-size="14" lengthAdjust="spacing" textLength="196.2232" x="260.46" y="582.3847">&#171;unique&#187; (vehicle, timestamp)</text></g><!--class ma--><g class="entity" data-entity="ma" data-source-line="50" data-uid="ent0005" id="entity_ma"><rect fill="#F1F1F1" height="105.2038" rx="2.5" ry="2.5" style="stroke:#800080;stroke-width:0.5;" width="212.3638" x="178" y="669.56"/><ellipse cx="213.5643" cy="685.56" fill="#ADD1B2" rx="11" ry="11" style="stroke:#181818;stroke-width:1;"/><path d="M216.533,692.06 L209.2205,692.06 L209.2205,679.3881 L216.533,679.3881 L216.533,681.2631 L211.2674,681.2631 L211.2674,684.5288 L216.2205,684.5288 L216.2205,686.3881 L211.2674,686.3881 L211.2674,690.185 L216.533,690.185 L216.533,692.06 Z " fill="#000000"/><text fill="#000000" font-family="sans-serif" font-size="14" lengthAdjust="spacing" textLength="134.6655" x="232.1341" y="690.992">mileage_attachment</text><line style="stroke:#800080;stroke-width:0.5;" x1="179" x2="389.3638" y1="701.56" y2="701.56"/><ellipse cx="189" cy="716.594" fill="#000000" rx="3" ry="3" style="stroke:#000000;stroke-width:1;"/><text fill="#000000" font-family="sans-serif" font-size="14" font-weight="bold" lengthAdjust="spacing" textLength="186.3638" x="198" y="720.5259">String : attachmentID &#171;PK&#187;</text><line style="stroke:#800080;stroke-width:1;" x1="179" x2="389.3638" y1="728.6279" y2="728.6279"/><ellipse cx="189" cy="743.6619" fill="#000000" rx="3" ry="3" style="stroke:#000000;stroke-width:1;"/><text fill="#000000" font-family="sans-serif" font-size="14" lengthAdjust="spacing" textLength="74.1157" x="198" y="747.5939">String : URI</text><ellipse cx="189" cy="762.7298" fill="#000000" rx="3" ry="3" style="stroke:#000000;stroke-width:1;"/><text fill="#000000" font-family="sans-serif" font-size="14" font-weight="bold" lengthAdjust="spacing" textLength="144.6965" x="198" y="766.6618">String : mileage &#171;FK&#187;</text></g><!--class ft--><g class="entity" data-entity="ft" data-source-line="57" data-uid="ent0006" id="entity_ft"><rect fill="#F1F1F1" height="143.3396" rx="2.5" ry="2.5" style="stroke:#800080;stroke-width:0.5;" width="88.4058" x="424.98" y="650.49"/><ellipse cx="439.98" cy="666.49" fill="#EB937F" rx="11" ry="11" style="stroke:#181818;stroke-width:1;"/><path d="M442.9488,672.99 L435.6363,672.99 L435.6363,660.3181 L442.9488,660.3181 L442.9488,662.1931 L437.6831,662.1931 L437.6831,665.4588 L442.6363,665.4588 L442.6363,667.3181 L437.6831,667.3181 L437.6831,671.115 L442.9488,671.115 L442.9488,672.99 Z " fill="#000000"/><text fill="#000000" font-family="sans-serif" font-size="14" lengthAdjust="spacing" textLength="56.4058" x="453.98" y="671.922">fuelType</text><line style="stroke:#800080;stroke-width:0.5;" x1="425.98" x2="512.3858" y1="682.49" y2="682.49"/><text fill="#000000" font-family="sans-serif" font-size="14" lengthAdjust="spacing" textLength="61.9077" x="430.98" y="701.4559">REGULAR</text><text fill="#000000" font-family="sans-serif" font-size="14" lengthAdjust="spacing" textLength="33.7259" x="430.98" y="720.5239">PLUS</text><text fill="#000000" font-family="sans-serif" font-size="14" lengthAdjust="spacing" textLength="65.3378" x="430.98" y="739.5918">PREMIUM</text><text fill="#000000" font-family="sans-serif" font-size="14" lengthAdjust="spacing" textLength="23.7999" x="430.98" y="758.6597">E85</text><text fill="#000000" font-family="sans-serif" font-size="14" lengthAdjust="spacing" textLength="45.5558" x="430.98" y="777.7276">DIESEL</text><line style="stroke:#800080;stroke-width:0.5;" x1="425.98" x2="512.3858" y1="785.8296" y2="785.8296"/></g><!--link v to va--><g class="link" data-entity-1="v" data-entity-2="va" data-source-line="65" data-uid="lnk7" id="link_v_va"><path codeLine="65" d="M208.8171,177.2846 C184.6071,235.9246 162.4687,289.5621 141.5587,340.2121" fill="none" id="v-va" style="stroke:#000000;stroke-width:1;stroke-dasharray:7,7;"/><line style="stroke:#000000;stroke-width:1;" x1="206.6463" x2="214.0408" y1="172.0608" y2="175.1137"/><line style="stroke:#000000;stroke-width:1;" x1="205.5014" x2="212.896" y1="174.8338" y2="177.8867"/><line style="stroke:#000000;stroke-width:1;" x1="208.8171" x2="211.87" y1="177.2846" y2="169.89"/><line style="stroke:#000000;stroke-width:1;" x1="137.7428" x2="140.236" y1="349.4554" y2="359.1396"/><line style="stroke:#000000;stroke-width:1;" x1="137.7428" x2="129.144" y1="349.4554" y2="354.5604"/><line style="stroke:#000000;stroke-width:1;" x1="137.7428" x2="134.69" y1="349.4554" y2="356.85"/><ellipse cx="140.0323" cy="343.9094" fill="none" rx="4" ry="4" style="stroke:#000000;stroke-width:1;"/></g><!--link v to m--><g class="link" data-entity-1="v" data-entity-2="m" data-source-line="66" data-uid="lnk8" id="link_v_m"><path codeLine="66" d="M281.5431,177.2845 C289.1031,195.5945 287.516,191.7301 296.026,212.3601" fill="none" id="v-m" style="stroke:#000000;stroke-width:1;stroke-dasharray:7,7;"/><line style="stroke:#000000;stroke-width:1;" x1="276.3193" x2="283.7138" y1="175.1138" y2="172.0607"/><line style="stroke:#000000;stroke-width:1;" x1="277.4642" x2="284.8587" y1="177.8867" y2="174.8336"/><line style="stroke:#000000;stroke-width:1;" x1="281.5431" x2="278.49" y1="177.2845" y2="169.89"/><line style="stroke:#000000;stroke-width:1;" x1="299.8393" x2="308.4366" y1="221.6045" y2="226.712"/><line style="stroke:#000000;stroke-width:1;" x1="299.8393" x2="297.3434" y1="221.6045" y2="231.288"/><line style="stroke:#000000;stroke-width:1;" x1="299.8393" x2="302.89" y1="221.6045" y2="229"/><ellipse cx="297.5513" cy="216.0579" fill="none" rx="4" ry="4" style="stroke:#000000;stroke-width:1;"/></g><!--link m to ma--><g class="link" data-entity-1="m" data-entity-2="ma" data-source-line="67" data-uid="lnk9" id="link_m_ma"><path codeLine="67" d="M320.9212,598.6126 C312.3412,627.2126 311.5887,629.7481 304.9187,651.9981" fill="none" id="m-ma" style="stroke:#000000;stroke-width:1;stroke-dasharray:7,7;"/><line style="stroke:#000000;stroke-width:1;" x1="318.2393" x2="325.9019" y1="593.6319" y2="595.9307"/><line style="stroke:#000000;stroke-width:1;" x1="317.3773" x2="325.0399" y1="596.5054" y2="598.8042"/><line style="stroke:#000000;stroke-width:1;" x1="320.9212" x2="323.22" y1="598.6126" y2="590.95"/><line style="stroke:#000000;stroke-width:1;" x1="302.0472" x2="305.4973" y1="661.5769" y2="670.9629"/><line style="stroke:#000000;stroke-width:1;" x1="302.0472" x2="294.0027" y1="661.5769" y2="667.5171"/><line style="stroke:#000000;stroke-width:1;" x1="302.0472" x2="299.75" y1="661.5769" y2="669.24"/><ellipse cx="303.7701" cy="655.8296" fill="none" rx="4" ry="4" style="stroke:#000000;stroke-width:1;"/></g><!--link m to ft--><g class="link" data-entity-1="m" data-entity-2="ft" data-source-line="68" data-uid="lnk10" id="link_m_ft"><path codeLine="68" d="M430.57,590.95 C436.75,611.8 441.0458,626.2771 446.3958,644.3371" fill="none" id="m-to-ft" style="stroke:#000000;stroke-width:1;stroke-dasharray:7,7;"/><polygon fill="#000000" points="448.1,650.09,449.3789,640.3245,446.6798,645.2959,441.7084,642.5968,448.1,650.09" style="stroke:#000000;stroke-width:1;"/></g><!--SRC=[ZLDDRzim3BtxLmWvRSRgdGOCXM6Wcvt2M08K-JZiDB0EcsgHH4-MiWLj__kKn9RLr1wc4wNtAF8zKMbZ3WApg1BGD3c7hGR9dYBMhXbNM94WpMghQu4U0AtfTq3irfIK-NfAk1TGxTxWnmk7y9Ve9Ke_jir4g0mt1pRPuoEl14uOD6mVL8jP72-DvchBhbbBAdEMfdVViYoEFU_gAaZn2OfNEmMo5-CH2RkXKzgWyCUbCjtPTmJzbbuBCEZaNAhu0SP0zIZTyLaGj8fUgUb9bu9QCO6GzQACnknmkTDpRj29v09XU_PJZldPalxVJyCbDWPaxS6SxBrhuPevAxYn6nn0I6rVGr-8N67bCDxSL9NLHni7yYft9waSz_mKpD6WReA-F9Ks98_Wt0aQ9En9M8ct85mp8I7iP6g5M87Q1N2Xh7JOWqMnEjGuahYYUiLH3zKrP43a90G4ZNixVvBL2iJ8jSMVchJ1pJ__Gl_u7Ij9V9YcLl5V5hEClMlv7_etV3ymBvUJAs5iTiQdTtnykYaU6yIBINRUJphhJzqycA2RHN6xdjqi_FvkjbxscqKnBzTploy-V-e7h2oMnUnOOi-UdvE4djm7xMCPIH-2YvCaSuMZlm00]--></g></svg>