<svg xmlns="http://www.w3.org/2000/svg" xmlns:xlink="http://www.w3.org/1999/xlink" contentStyleType="text/css" data-diagram-type="ACTIVITY" height="544px" preserveAspectRatio="none" style="width:199px;height:544px;background:#FFFFFF;" version="1.1" viewBox="0 0 199 544" width="199px" zoomAndPan="magnify"><defs/><g><ellipse cx="88.9155" cy="20" fill="#222222" rx="10" ry="10" style="stroke:#800080;stroke-width:1;"/><rect fill="#ADD8E6" height="36.3441" rx="12.5" ry="12.5" style="stroke:#800080;stroke-width:0.5;" width="149.8409" x="13.995" y="99.4909"/><text fill="#000000" font-family="sans-serif" font-size="12" lengthAdjust="spacing" textLength="129.8409" x="23.995" y="122.319">Start Date (field visible)</text><rect fill="#ADD8E6" height="36.3441" rx="12.5" ry="12.5" style="stroke:#800080;stroke-width:0.5;" width="144.3689" x="16.731" y="170.8351"/><text fill="#000000" font-family="sans-serif" font-size="12" lengthAdjust="spacing" textLength="124.3689" x="26.731" y="193.6631">End Date (field visible)</text><polygon fill="#F1F1F1" points="70.1386,50,107.6923,50,119.6923,62,107.6923,74,70.1386,74,58.1386,62,70.1386,50" style="stroke:#800080;stroke-width:0.5;"/><text fill="#000000" font-family="sans-serif" font-size="11" lengthAdjust="spacing" textLength="39.9297" x="92.9155" y="85.7589">Custom</text><text fill="#000000" font-family="sans-serif" font-size="11" lengthAdjust="spacing" textLength="37.5537" x="70.1386" y="66.268">Range?</text><text fill="#000000" font-family="sans-serif" font-size="11" lengthAdjust="spacing" textLength="31.3498" x="119.6923" y="58.777">Latest</text><polygon fill="#F1F1F1" points="88.9155,227.1792,100.9155,239.1792,88.9155,251.1792,76.9155,239.1792,88.9155,227.1792" style="stroke:#800080;stroke-width:0.5;"/><polygon fill="#F1F1F1" points="63.0821,271.1792,114.7488,271.1792,126.7488,283.1792,114.7488,295.1792,63.0821,295.1792,51.0821,283.1792,63.0821,271.1792" style="stroke:#800080;stroke-width:0.5;"/><text fill="#000000" font-family="sans-serif" font-size="11" lengthAdjust="spacing" textLength="51.6666" x="63.0821" y="287.4471">Datatype?</text><text fill="#000000" font-family="sans-serif" font-size="11" lengthAdjust="spacing" textLength="19.5909" x="31.4913" y="279.9562">CSV</text><text fill="#000000" font-family="sans-serif" font-size="11" lengthAdjust="spacing" textLength="25.9928" x="126.7488" y="279.9562">JSON</text><rect fill="#ADD8E6" height="36.3441" rx="12.5" ry="12.5" style="stroke:#800080;stroke-width:0.5;" width="60.1643" x="11" y="305.1792"/><text fill="#000000" font-family="sans-serif" font-size="12" lengthAdjust="spacing" textLength="40.1643" x="21" y="328.0073">toCSV()</text><rect fill="#ADD8E6" height="36.3441" rx="12.5" ry="12.5" style="stroke:#800080;stroke-width:0.5;" width="67.1483" x="103.1746" y="305.1792"/><text fill="#000000" font-family="sans-serif" font-size="12" lengthAdjust="spacing" textLength="47.1483" x="113.1746" y="328.0073">toJSON()</text><polygon fill="#F1F1F1" points="88.9155,347.5233,100.9155,359.5233,88.9155,371.5233,76.9155,359.5233,88.9155,347.5233" style="stroke:#800080;stroke-width:0.5;"/><polygon fill="#F1F1F1" points="69.5941,391.5233,108.2368,391.5233,120.2368,403.5233,108.2368,415.5233,69.5941,415.5233,57.5941,403.5233,69.5941,391.5233" style="stroke:#800080;stroke-width:0.5;"/><text fill="#000000" font-family="sans-serif" font-size="11" lengthAdjust="spacing" textLength="38.6427" x="69.5941" y="407.7913">Export?</text><text fill="#000000" font-family="sans-serif" font-size="11" lengthAdjust="spacing" textLength="33.8688" x="23.7253" y="400.3003">Export</text><text fill="#000000" font-family="sans-serif" font-size="11" lengthAdjust="spacing" textLength="34.2428" x="120.2368" y="400.3003">Cancel</text><rect fill="#90EE90" height="36.3441" rx="12.5" ry="12.5" style="stroke:#800080;stroke-width:0.5;" width="56.9483" x="19.12" y="425.5233"/><text fill="#000000" font-family="sans-serif" font-size="12" lengthAdjust="spacing" textLength="36.9483" x="29.12" y="448.3514">Export</text><rect fill="#FFC0CB" height="36.3441" rx="12.5" ry="12.5" style="stroke:#800080;stroke-width:0.5;" width="57.3563" x="101.5587" y="425.5233"/><text fill="#000000" font-family="sans-serif" font-size="12" lengthAdjust="spacing" textLength="37.3563" x="111.5587" y="448.3514">Cancel</text><polygon fill="#F1F1F1" points="88.9155,467.8674,100.9155,479.8674,88.9155,491.8674,76.9155,479.8674,88.9155,467.8674" style="stroke:#800080;stroke-width:0.5;"/><ellipse cx="88.9155" cy="522.8674" fill="none" rx="11" ry="11" style="stroke:#800080;stroke-width:1;"/><ellipse cx="88.9155" cy="522.8674" fill="#222222" rx="6" ry="6" style="stroke:#800080;stroke-width:1;"/><line style="stroke:#000000;stroke-width:1;" x1="88.9155" x2="88.9155" y1="135.8351" y2="170.8351"/><polygon fill="#000000" points="84.9155,160.8351,88.9155,170.8351,92.9155,160.8351,88.9155,164.8351" style="stroke:#000000;stroke-width:1;"/><line style="stroke:#000000;stroke-width:1;" x1="88.9155" x2="88.9155" y1="74" y2="99.4909"/><polygon fill="#000000" points="84.9155,89.4909,88.9155,99.4909,92.9155,89.4909,88.9155,93.4909" style="stroke:#000000;stroke-width:1;"/><line style="stroke:#000000;stroke-width:1;" x1="119.6923" x2="173.8359" y1="62" y2="62"/><polygon fill="#000000" points="169.8359,143.3351,173.8359,153.3351,177.8359,143.3351,173.8359,147.3351" style="stroke:#000000;stroke-width:1;"/><line style="stroke:#000000;stroke-width:1;" x1="173.8359" x2="173.8359" y1="62" y2="239.1792"/><line style="stroke:#000000;stroke-width:1;" x1="173.8359" x2="100.9155" y1="239.1792" y2="239.1792"/><polygon fill="#000000" points="110.9155,235.1792,100.9155,239.1792,110.9155,243.1792,106.9155,239.1792" style="stroke:#000000;stroke-width:1;"/><line style="stroke:#000000;stroke-width:1;" x1="88.9155" x2="88.9155" y1="207.1792" y2="227.1792"/><polygon fill="#000000" points="84.9155,217.1792,88.9155,227.1792,92.9155,217.1792,88.9155,221.1792" style="stroke:#000000;stroke-width:1;"/><line style="stroke:#000000;stroke-width:1;" x1="88.9155" x2="88.9155" y1="30" y2="50"/><polygon fill="#000000" points="84.9155,40,88.9155,50,92.9155,40,88.9155,44" style="stroke:#000000;stroke-width:1;"/><line style="stroke:#000000;stroke-width:1;" x1="51.0821" x2="41.0821" y1="283.1792" y2="283.1792"/><line style="stroke:#000000;stroke-width:1;" x1="41.0821" x2="41.0821" y1="283.1792" y2="305.1792"/><polygon fill="#000000" points="37.0821,295.1792,41.0821,305.1792,45.0821,295.1792,41.0821,299.1792" style="stroke:#000000;stroke-width:1;"/><line style="stroke:#000000;stroke-width:1;" x1="126.7488" x2="136.7488" y1="283.1792" y2="283.1792"/><line style="stroke:#000000;stroke-width:1;" x1="136.7488" x2="136.7488" y1="283.1792" y2="305.1792"/><polygon fill="#000000" points="132.7488,295.1792,136.7488,305.1792,140.7488,295.1792,136.7488,299.1792" style="stroke:#000000;stroke-width:1;"/><line style="stroke:#000000;stroke-width:1;" x1="41.0821" x2="41.0821" y1="341.5233" y2="359.5233"/><line style="stroke:#000000;stroke-width:1;" x1="41.0821" x2="76.9155" y1="359.5233" y2="359.5233"/><polygon fill="#000000" points="66.9155,355.5233,76.9155,359.5233,66.9155,363.5233,70.9155,359.5233" style="stroke:#000000;stroke-width:1;"/><line style="stroke:#000000;stroke-width:1;" x1="136.7488" x2="136.7488" y1="341.5233" y2="359.5233"/><line style="stroke:#000000;stroke-width:1;" x1="136.7488" x2="100.9155" y1="359.5233" y2="359.5233"/><polygon fill="#000000" points="110.9155,355.5233,100.9155,359.5233,110.9155,363.5233,106.9155,359.5233" style="stroke:#000000;stroke-width:1;"/><line style="stroke:#000000;stroke-width:1;" x1="88.9155" x2="88.9155" y1="251.1792" y2="271.1792"/><polygon fill="#000000" points="84.9155,261.1792,88.9155,271.1792,92.9155,261.1792,88.9155,265.1792" style="stroke:#000000;stroke-width:1;"/><line style="stroke:#000000;stroke-width:1;" x1="57.5941" x2="47.5941" y1="403.5233" y2="403.5233"/><line style="stroke:#000000;stroke-width:1;" x1="47.5941" x2="47.5941" y1="403.5233" y2="425.5233"/><polygon fill="#000000" points="43.5941,415.5233,47.5941,425.5233,51.5941,415.5233,47.5941,419.5233" style="stroke:#000000;stroke-width:1;"/><line style="stroke:#000000;stroke-width:1;" x1="120.2368" x2="130.2368" y1="403.5233" y2="403.5233"/><line style="stroke:#000000;stroke-width:1;" x1="130.2368" x2="130.2368" y1="403.5233" y2="425.5233"/><polygon fill="#000000" points="126.2368,415.5233,130.2368,425.5233,134.2368,415.5233,130.2368,419.5233" style="stroke:#000000;stroke-width:1;"/><line style="stroke:#000000;stroke-width:1;" x1="47.5941" x2="47.5941" y1="461.8674" y2="479.8674"/><line style="stroke:#000000;stroke-width:1;" x1="47.5941" x2="76.9155" y1="479.8674" y2="479.8674"/><polygon fill="#000000" points="66.9155,475.8674,76.9155,479.8674,66.9155,483.8674,70.9155,479.8674" style="stroke:#000000;stroke-width:1;"/><line style="stroke:#000000;stroke-width:1;" x1="130.2368" x2="130.2368" y1="461.8674" y2="479.8674"/><line style="stroke:#000000;stroke-width:1;" x1="130.2368" x2="100.9155" y1="479.8674" y2="479.8674"/><polygon fill="#000000" points="110.9155,475.8674,100.9155,479.8674,110.9155,483.8674,106.9155,479.8674" style="stroke:#000000;stroke-width:1;"/><line style="stroke:#000000;stroke-width:1;" x1="88.9155" x2="88.9155" y1="371.5233" y2="391.5233"/><polygon fill="#000000" points="84.9155,381.5233,88.9155,391.5233,92.9155,381.5233,88.9155,385.5233" style="stroke:#000000;stroke-width:1;"/><line style="stroke:#000000;stroke-width:1;" x1="88.9155" x2="88.9155" y1="491.8674" y2="511.8674"/><polygon fill="#000000" points="84.9155,501.8674,88.9155,511.8674,92.9155,501.8674,88.9155,505.8674" style="stroke:#000000;stroke-width:1;"/><!--SRC=[ZL4xJyCm4DxzApmw3B3JA4YaPQWga8Z4xYINrCArBVjIY53_EtPSabG4qPlik-znZzHXBo4Zl49n5DYl1MyjFz0lGi-n4megBRMbfhD6mbZWrkgF6V0ddhJ2V22KabVll-f1SAb-8kFprY57e3SBwe-UqbhTgJfgID7kiPGTBEh0fz4MhnTgBO1QLAguga1UfMI4cazr8kdTUSj-B8k4Y8QoLwvQU4Wexa5HjlFZEam8I0UKvPr3VKX6ZViYyEWwx8Gr0cHDZyA9KaAoecawB2lB9lX6rV-2GTMYYQruACVUJDtanTlC7BN_iqloqEQsU7c-m8K4-yjbCvnYz8ZV6Jqc0ZaURRJ9XytFa34HaF4eauzVco7V]--></g></svg>